<svg xmlns="http://www.w3.org/2000/svg" viewBox="0 0 512 512" role="img" aria-label="Oracle icon">
  <rect width="512" height="512" rx="96" fill="#2b2147"/>
  <circle cx="256" cy="256" r="146" fill="none" stroke="#e6c86e" stroke-width="18"/>
  <path d="M256 128c34 45 64 86 64 132 0 46-28 84-64 124-36-40-64-78-64-124 0-46 30-87 64-132z" fill="#8fd3c7"/>
  <circle cx="256" cy="256" r="44" fill="#f5efe0"/>
  <path d="M256 72v54M256 386v54M72 256h54M386 256h54M126 126l38 38M348 348l38 38M386 126l-38 38M164 348l-38 38" stroke="#e6c86e" stroke-width="16" stroke-linecap="round"/>
</svg>
