<svg xmlns="http://www.w3.org/2000/svg" viewBox="0 0 1200 520" role="img" aria-label="Fortune Telling Skill cover">
  <defs>
    <linearGradient id="bg" x1="0" y1="0" x2="1" y2="1">
      <stop offset="0" stop-color="#211936"/>
      <stop offset="0.48" stop-color="#493a78"/>
      <stop offset="1" stop-color="#163c43"/>
    </linearGradient>
    <linearGradient id="card" x1="0" y1="0" x2="0" y2="1">
      <stop offset="0" stop-color="#fff8df"/>
      <stop offset="1" stop-color="#e7d49a"/>
    </linearGradient>
    <filter id="shadow" x="-30%" y="-30%" width="160%" height="160%">
      <feDropShadow dx="0" dy="18" stdDeviation="18" flood-color="#080511" flood-opacity="0.35"/>
    </filter>
  </defs>
  <rect width="1200" height="520" fill="url(#bg)"/>
  <path d="M0 420C155 360 250 480 412 410c134-58 210-205 372-155 151 47 210 193 416 110v155H0z" fill="#102d32" opacity="0.7"/>
  <g filter="url(#shadow)" transform="translate(765 86)">
    <rect x="0" y="42" width="150" height="242" rx="18" fill="#2c2450" stroke="#e7c96b" stroke-width="6" transform="rotate(-12 75 163)"/>
    <rect x="98" y="10" width="150" height="242" rx="18" fill="#f6efd7" stroke="#e7c96b" stroke-width="6" transform="rotate(8 173 131)"/>
    <rect x="196" y="54" width="150" height="242" rx="18" fill="#2c2450" stroke="#e7c96b" stroke-width="6" transform="rotate(14 271 175)"/>
    <circle cx="173" cy="131" r="42" fill="none" stroke="#493a78" stroke-width="8"/>
    <path d="M173 70v122M112 131h122" stroke="#493a78" stroke-width="8" stroke-linecap="round"/>
    <path d="M76 163c22-30 42-56 42-88 0 32 20 58 42 88-22 30-42 56-42 88 0-32-20-58-42-88z" fill="none" stroke="#8fd3c7" stroke-width="6"/>
    <path d="M272 175c22-30 42-56 42-88 0 32 20 58 42 88-22 30-42 56-42 88 0-32-20-58-42-88z" fill="none" stroke="#8fd3c7" stroke-width="6"/>
  </g>
  <g transform="translate(86 92)">
    <text x="0" y="0" fill="#f8efd2" font-size="64" font-family="Arial, 'Microsoft YaHei', sans-serif" font-weight="700">Fortune Telling Skill</text>
    <text x="0" y="72" fill="#d8f5ee" font-size="38" font-family="Arial, 'Microsoft YaHei', sans-serif">灵感算命师</text>
    <text x="0" y="142" fill="#f8efd2" opacity="0.9" font-size="25" font-family="Arial, 'Microsoft YaHei', sans-serif">Bazi · Tarot · Astrology · Wuxing · Image / Video Symbolic Reading</text>
    <rect x="0" y="194" width="590" height="70" rx="16" fill="#ffffff" opacity="0.11" stroke="#f3d779" stroke-opacity="0.65"/>
    <text x="26" y="239" fill="#fff8df" font-size="24" font-family="Arial, 'Microsoft YaHei', sans-serif">Entertainment-first readings with clear safety boundaries</text>
  </g>
</svg>
